<svg xmlns="http://www.w3.org/2000/svg" viewBox="-30 -129 2560 2560"><defs><clipPath id="base"><rect width="2500" height="1871"/></clipPath><clipPath id="outline"><rect x="-200" y="-200" width="2900" height="2131"/></clipPath><linearGradient id="fill" gradientUnits="userSpaceOnUse" x1="50" y1="0" x2="2450" y2="0"><stop offset="0" stop-color="#282D5A"/><stop offset="1" stop-color="#00AFB4"/></linearGradient></defs><g clip-path="url(#outline)" fill="#fff"><circle cx="530" cy="1391" r="540"/><circle cx="2066" cy="1487" r="444"/><circle cx="1346" cy="1171" r="802"/><rect x="530" y="1040" width="1536" height="891"/></g><g clip-path="url(#base)" fill="url(#fill)"><circle cx="530" cy="1391" r="480"/><circle cx="2066" cy="1487" r="384"/><circle cx="1346" cy="1171" r="742"/><rect x="530" y="1100" width="1536" height="771"/></g><g fill="none" stroke="#fff" stroke-width="150" stroke-linecap="round" stroke-linejoin="round"><path d="M717 1201 A288 288 0 1 0 717 1587"/><path d="M942 1682 V1106 H1123 A139 139 0 0 1 1123 1384 H942"/><path d="M1513 1106 V1682"/></g></svg>
