<svg width="2500" height="2500" viewBox="0 0 2500 2500" fill="none" xmlns="http://www.w3.org/2000/svg">
<path fill-rule="evenodd" clip-rule="evenodd" d="M867.477 1094C867.477 1066.39 889.862 1044 917.477 1044H1131.48C1169.81 1044 1204.48 1053.83 1235.48 1073.5C1266.81 1092.83 1291.64 1118.83 1309.98 1151.5C1328.31 1183.83 1337.48 1219.33 1337.48 1258C1337.48 1297.33 1327.98 1333.17 1308.98 1365.5C1290.31 1397.83 1265.31 1423.67 1233.98 1443C1202.64 1462.33 1168.48 1472 1131.48 1472H1067.48C1039.86 1472 1017.48 1494.39 1017.48 1522V1821C1017.48 1848.61 1039.86 1871 1067.48 1871H1388.14C1415.75 1871 1438.14 1848.61 1438.14 1821V1238.1C1438.14 1205.22 1469.59 1181.37 1502.44 1182.74C1506.6 1182.91 1510.79 1183 1515 1183C1518.21 1183 1521.41 1182.95 1524.6 1182.85C1557.19 1181.81 1588.14 1205.58 1588.14 1238.19V1821C1588.14 1848.61 1610.53 1871 1638.14 1871H2066C2278.08 1871 2450 1699.08 2450 1487C2450 1290.73 2301.39 1128.68 2111.13 1105.62C2084.99 1102.45 2063.25 1082.31 2059.81 1056.2C2013.4 703.357 1711.51 431 1346 431C1042.78 431 783.346 618.433 677.227 883.758C667.243 908.72 640.41 922.983 613.935 918.314C586.68 913.507 558.633 911 530 911C264.903 911 50 1125.9 50 1391C50 1656.1 264.903 1871 530 1871H817.477C845.091 1871 867.477 1848.61 867.477 1821V1094ZM369.5 1729C411.167 1747.67 455.667 1757 503 1757C559.667 1757 611.833 1743.83 659.5 1717.5C690.119 1700.58 717.367 1680.16 741.247 1656.23C762.531 1634.9 754.579 1600.24 728.119 1585.83L679.641 1559.42C658.871 1548.1 633.398 1553.49 614.724 1568.01C604.489 1575.96 593.414 1582.96 581.5 1589C557.167 1601 531 1607 503 1607C476.333 1607 451.167 1601.5 427.5 1590.5C404.167 1579.17 383.5 1563.83 365.5 1544.5C347.833 1524.83 334 1502.17 324 1476.5C314 1450.83 309 1423.33 309 1394C309 1364.33 314 1336.67 324 1311C334 1285.33 347.833 1262.83 365.5 1243.5C383.5 1223.83 404.167 1208.5 427.5 1197.5C451.167 1186.5 476.333 1181 503 1181C531 1181 557.167 1187 581.5 1199C593.483 1204.91 604.617 1211.79 614.903 1219.64C633.497 1233.83 658.641 1239.13 679.246 1228.06L727.855 1201.94C754.436 1187.66 762.569 1152.97 741.285 1131.58C717.397 1107.57 690.135 1087.21 659.5 1070.5C611.833 1044.17 559.667 1031 503 1031C455.667 1031 411.167 1040.5 369.5 1059.5C327.833 1078.17 291.167 1104.17 259.5 1137.5C228.167 1170.5 203.5 1209 185.5 1253C167.833 1296.67 159 1343.67 159 1394C159 1444 167.833 1491 185.5 1535C203.5 1578.67 228.167 1617.17 259.5 1650.5C291.167 1683.83 327.833 1710 369.5 1729ZM1515 1109C1637.61 1109 1737 1009.61 1737 887C1737 764.393 1637.61 665 1515 665C1392.39 665 1293 764.393 1293 887C1293 1009.61 1392.39 1109 1515 1109Z" fill="#21436A"/>
<path d="M1017.48 1272C1017.48 1299.61 1039.86 1322 1067.48 1322H1114.48C1127.81 1322 1139.98 1318.67 1150.98 1312C1161.98 1305 1170.81 1295.83 1177.48 1284.5C1184.14 1273.17 1187.48 1260.67 1187.48 1247C1187.48 1233.33 1184.14 1220.83 1177.48 1209.5C1170.81 1198.17 1161.98 1189.17 1150.98 1182.5C1139.98 1175.5 1127.81 1172 1114.48 1172H1067.48C1039.86 1172 1017.48 1194.39 1017.48 1222V1272Z" fill="#21436A"/>
<path d="M1613 887C1640.61 887 1663.79 910.001 1654.63 936.054C1653.74 938.605 1652.77 941.134 1651.73 943.637C1644.3 961.593 1633.39 977.909 1619.65 991.652C1605.91 1005.39 1589.59 1016.3 1571.64 1023.73C1553.68 1031.17 1534.44 1035 1515 1035C1495.56 1035 1476.32 1031.17 1458.36 1023.73C1440.41 1016.3 1424.09 1005.39 1410.35 991.652C1396.61 977.909 1385.7 961.593 1378.27 943.637C1377.23 941.134 1376.26 938.605 1375.37 936.054C1366.21 910.001 1389.39 887 1417 887H1613Z" fill="#21436A"/>
</svg>